<?xml version="1.0" standalone="no"?>
<!DOCTYPE svg PUBLIC "-//W3C//DTD SVG 20010904//EN"
 "http://www.w3.org/TR/2001/REC-SVG-20010904/DTD/svg10.dtd">
<svg version="1.0" xmlns="http://www.w3.org/2000/svg"
 width="445.000000pt" height="455.000000pt" viewBox="0 0 445.000000 455.000000"
 preserveAspectRatio="xMidYMid meet">

<g transform="translate(0.000000,455.000000) scale(0.100000,-0.100000)"
fill="#000000" stroke="none">
<path d="M3079 3660 c-243 -44 -418 -121 -686 -301 -89 -60 -165 -109 -167
-109 -3 0 -15 33 -26 73 -35 119 -35 119 -55 42 -38 -144 -64 -172 -190 -206
-47 -12 -85 -25 -85 -29 0 -4 25 -12 55 -19 30 -7 57 -15 59 -19 4 -7 -645
-452 -658 -452 -3 0 -6 16 -6 35 0 35 0 35 -45 35 l-45 0 0 -70 0 -69 -90 -61
-90 -61 0 78 c0 43 -3 95 -6 116 -6 36 -8 37 -50 37 l-44 0 0 -145 c0 -168 11
-147 -131 -245 -122 -84 -317 -278 -392 -391 -76 -115 -140 -253 -173 -374
-35 -128 -39 -330 -10 -435 166 -599 945 -740 1615 -291 481 321 1690 1148
1747 1193 247 199 422 471 485 753 20 90 17 296 -4 370 -74 249 -222 410 -462
501 -157 59 -372 76 -546 44z m411 -25 c231 -49 428 -192 519 -376 60 -123 75
-192 75 -339 0 -225 -71 -425 -228 -640 -58 -80 -199 -223 -291 -294 -65 -51
-1173 -807 -1690 -1153 -199 -134 -366 -208 -571 -253 -149 -34 -363 -32 -496
3 -158 42 -258 97 -358 197 -147 146 -205 292 -204 510 0 232 75 434 243 660
97 130 225 247 405 370 l49 33 -7 -54 c-11 -85 -57 -172 -128 -242 -49 -48
-63 -68 -64 -92 0 -36 22 -85 39 -85 24 0 113 77 159 137 63 85 87 154 100
295 l11 117 83 56 84 55 0 -269 c0 -321 4 -359 37 -374 71 -32 326 137 414
274 44 68 46 120 8 148 -15 12 -32 21 -36 21 -4 0 -18 -18 -31 -40 -34 -60
-133 -161 -193 -197 -98 -58 -89 -83 -89 234 l0 278 338 229 c185 126 344 231
353 233 9 3 32 -9 51 -26 34 -30 47 -58 79 -181 l12 -45 12 40 c8 22 21 66 31
98 23 79 59 109 168 137 47 13 86 26 86 29 0 4 -37 17 -83 29 -74 21 -151 62
-137 75 3 2 80 54 172 116 287 193 496 275 773 305 67 7 229 -3 305 -19z
m-2178 -1275 l3 -331 64 32 c73 37 187 139 233 210 17 27 34 49 38 49 4 0 14
-8 24 -18 15 -18 13 -23 -33 -88 -70 -100 -195 -195 -317 -243 -87 -33 -84
-45 -84 367 l0 352 35 0 35 0 2 -330z m-285 113 c-6 -209 -20 -274 -77 -363
-31 -49 -143 -160 -160 -160 -5 0 -14 9 -20 19 -8 17 -1 28 48 75 111 106 139
189 149 443 l6 173 30 0 30 0 -6 -187z"/>
<path d="M2462 2770 c-38 -23 -52 -54 -52 -117 0 -78 45 -128 116 -126 72 2
116 60 108 143 -5 57 -21 88 -56 106 -38 19 -77 17 -116 -6z m121 -20 c34 -27
43 -70 22 -110 -29 -57 -114 -64 -155 -13 -66 84 48 190 133 123z"/>
<path d="M2476 2739 c-53 -41 -23 -129 44 -129 38 0 80 39 80 75 0 33 -41 75
-73 75 -13 0 -36 -9 -51 -21z m88 -71 c22 -36 -48 -58 -81 -26 -13 13 -12 17
3 32 20 21 63 17 78 -6z"/>
<path d="M2300 2634 c0 -164 50 -395 111 -517 38 -74 98 -164 130 -194 l24
-22 33 30 c28 25 31 33 21 45 -10 12 -10 17 0 23 9 6 -3 28 -42 80 -105 139
-158 291 -177 501 -5 63 -10 118 -10 123 0 4 -20 7 -45 7 l-45 0 0 -76z m83
-51 c11 -196 79 -391 181 -516 42 -52 44 -56 27 -71 -10 -9 -23 -16 -29 -16
-34 0 -162 232 -196 355 -20 78 -46 246 -46 308 0 45 1 47 29 47 l28 0 6 -107z"/>
<path d="M1966 2598 c-10 -153 -30 -230 -90 -353 -39 -77 -73 -130 -116 -178
-47 -51 -59 -71 -51 -80 7 -10 7 -17 -1 -25 -9 -9 -5 -19 17 -42 l29 -30 54
52 c104 103 189 253 226 403 19 78 36 213 36 292 l0 63 -49 0 -48 0 -7 -102z
m80 -5 c-19 -239 -88 -411 -226 -565 -54 -61 -69 -68 -90 -43 -10 12 -2 26 49
80 45 49 75 95 116 178 58 120 79 201 91 350 l7 87 30 0 30 0 -7 -87z"/>
<path d="M2790 2660 c-17 -24 -19 -34 -10 -44 7 -10 8 -16 0 -21 -22 -14 -6
-27 98 -79 59 -30 135 -70 169 -89 l61 -35 33 35 c27 27 31 36 20 43 -12 7
-13 11 -1 25 18 21 6 30 -165 114 -180 90 -178 89 -205 51z m208 -71 c78 -39
142 -73 142 -77 0 -4 -7 -18 -16 -30 l-15 -22 -52 31 c-29 17 -99 53 -157 81
-58 28 -106 52 -108 54 -2 1 2 11 10 23 16 27 22 25 196 -60z"/>
<path d="M3462 2383 c-128 -188 -346 -311 -626 -355 l-75 -11 4 -51 c6 -83 9
-87 69 -80 172 20 344 81 475 169 120 81 286 270 261 300 -5 6 -5 17 0 25 6
10 -1 20 -25 37 -19 13 -36 23 -39 23 -3 0 -23 -26 -44 -57z m72 22 c17 -13
18 -18 6 -40 -31 -58 -126 -160 -203 -217 -137 -102 -313 -171 -488 -192 -53
-7 -57 -6 -62 15 -9 32 -4 35 60 42 126 14 282 70 403 145 83 51 191 155 230
220 28 47 28 47 54 27z"/>
<path d="M1665 1555 c-24 -89 -52 -118 -129 -136 -31 -7 -59 -16 -62 -20 -2
-4 21 -13 53 -20 81 -19 116 -53 139 -136 19 -71 23 -70 44 15 16 64 54 99
130 121 36 10 58 21 50 24 -8 3 -41 13 -72 21 -67 19 -87 43 -115 136 l-19 64
-19 -69z"/>
<path d="M1317 1340 c-3 -8 -15 -48 -27 -89 -35 -122 -52 -137 -195 -177 -44
-12 -73 -24 -65 -27 8 -3 49 -16 90 -28 115 -33 140 -58 171 -172 11 -39 22
-79 25 -87 4 -8 16 21 29 66 38 139 64 165 203 200 39 10 72 20 72 24 0 3 -33
14 -72 24 -40 10 -85 25 -99 32 -39 20 -77 69 -89 117 -27 102 -37 131 -43
117z"/>
</g>
</svg>
